<?xml version="1.0" encoding="UTF-8" standalone="no"?>
<svg
   xmlns:dc="http://purl.org/dc/elements/1.1/"
   xmlns:cc="http://creativecommons.org/ns#"
   xmlns:rdf="http://www.w3.org/1999/02/22-rdf-syntax-ns#"
   xmlns:svg="http://www.w3.org/2000/svg"
   xmlns="http://www.w3.org/2000/svg"
   viewBox="0 0 128.88268 128.88268"
   height="128.88268"
   width="128.88268"
   xml:space="preserve"
   id="svg2"
   version="1.1"><metadata
     id="metadata8"><rdf:RDF><cc:Work
         rdf:about=""><dc:format>image/svg+xml</dc:format><dc:type
           rdf:resource="http://purl.org/dc/dcmitype/StillImage" /></cc:Work></rdf:RDF></metadata><defs
     id="defs6"><clipPath
       id="clipPath18"
       clipPathUnits="userSpaceOnUse"><path
         id="path16"
         d="M 0,96.662 H 96.662 V 0 H 0 Z" /></clipPath></defs><g
     transform="matrix(1.3333333,0,0,-1.3333333,0,128.88267)"
     id="g10"><g
       id="g12"><g
         clip-path="url(#clipPath18)"
         id="g14"><g
           transform="translate(95.6619,48.331)"
           id="g20"><path
             id="path22"
             style="fill:none;stroke:#93c01f;stroke-width:2;stroke-linecap:butt;stroke-linejoin:miter;stroke-miterlimit:10;stroke-dasharray:none;stroke-opacity:1"
             d="m 0,0 c 0,-26.141 -21.19,-47.331 -47.331,-47.331 -26.14,0 -47.331,21.19 -47.331,47.331 0,26.141 21.191,47.331 47.331,47.331 C -21.19,47.331 0,26.141 0,0 Z" /></g><g
           transform="translate(30.7044,59.7773)"
           id="g24"><path
             id="path26"
             style="fill:#93c01f;fill-opacity:1;fill-rule:nonzero;stroke:none"
             d="M 0,0 C 0,1.105 0.42,2.105 1.21,2.841 2,3.631 3,4.052 4.104,4.052 6.315,4.052 8.157,2.21 8.157,0 8.157,-2.21 6.315,-4.052 4.104,-4.052 1.842,-4.052 0,-2.21 0,0" /></g><g
           transform="translate(56.0692,30.2548)"
           id="g28"><path
             id="path30"
             style="fill:#93c01f;fill-opacity:1;fill-rule:nonzero;stroke:none"
             d="m 0,0 c -2.316,0.999 -4.42,2.42 -6.21,4.21 -1.842,1.789 -3.262,3.894 -4.209,6.261 -1.053,2.421 -1.58,4.948 -1.58,7.632 0,10.787 8.842,19.577 19.629,19.577 3.052,0 6.106,-0.738 8.788,-2.106 2.685,-1.316 5.105,-3.369 6.894,-5.79 l 0.843,-1.052 -5.632,-4.157 -0.788,1.053 c -2.368,3.21 -6.052,5.052 -10.105,5.052 -6.946,0 -12.629,-5.631 -12.629,-12.577 0,-7 5.683,-12.683 12.629,-12.683 4,0 7.684,1.842 10.105,5.051 l 0.788,1.001 5.58,-4.106 L 23.26,6.314 C 21.418,3.842 19.103,1.894 16.366,0.525 13.682,-0.843 10.682,-1.526 7.63,-1.526 5,-1.526 2.42,-1.001 0,0" /></g><g
           transform="translate(33.6961,28.7119)"
           id="g32"><path
             id="path34"
             style="fill:#9c9b9b;fill-opacity:1;fill-rule:nonzero;stroke:none"
             d="m 0,0 -8.337,10.645 -2.15,-2.203 V 0 h -6.818 v 38.489 h 6.818 V 17.672 l 6.606,6.346 H 5.401 L -3.619,15.417 8.18,0 Z" /></g></g></g></g></svg>